<svg xmlns="http://www.w3.org/2000/svg" width="127.106" height="26.044"><defs><style>.prefix__cls-1{fill:#ff6b00;fill-rule:evenodd}</style></defs><g id="prefix__Group_1325" data-name="Group 1325" transform="translate(-49.626 -43.167)"><path id="prefix__Path_97831" d="M171.392 64.295c-5.309 0-7.851 2.834-7.851 7.677v3.378c0 4.377 2.111 7.462 7.708 7.462a8.971 8.971 0 004.716-1.112 6.959 6.959 0 002.542-2.349l-1.927-1.928a.5.5 0 00-.716.131c-.9 1.507-1.994 2.4-4.578 2.4-3.231 0-4.534-1.519-4.534-4.246v-.652h11.065c1.005 0 1.44-.5 1.44-1.255v-2.08c-.001-4.233-2.34-7.426-7.865-7.426zm4.523 8.138l-9.152-.012-.012-.88c0-2.8 1.413-4.438 4.642-4.438s4.523 1.64 4.523 4.438z" class="prefix__cls-1" data-name="Path 97831" transform="translate(-73.33 -13.601)"/><path id="prefix__Path_97832" d="M317.215 64.295c-5.309 0-7.851 2.834-7.851 7.677v3.378c0 4.377 2.111 7.462 7.708 7.462a8.968 8.968 0 004.715-1.112 6.96 6.96 0 002.542-2.349l-1.929-1.928a.5.5 0 00-.716.131c-.9 1.507-1.994 2.4-4.577 2.4-3.232 0-4.534-1.519-4.534-4.246v-.652h11.065c1 0 1.44-.5 1.44-1.255v-2.08c.001-4.233-2.338-7.426-7.863-7.426zm4.523 8.138l-9.152-.012-.012-.88c0-2.8 1.413-4.438 4.641-4.438s4.523 1.64 4.523 4.438z" class="prefix__cls-1" data-name="Path 97832" transform="translate(-167.199 -13.601)"/><path id="prefix__Path_97833" d="M125.557 65.456h-1.2c-1.048 0-1.311.188-1.573.9 0 0-4.886 11.626-5 12.528h-.15c-.15-.9-5.073-12.528-5.073-12.528-.262-.714-.524-.9-1.573-.9h-1.16c-.861 0-1.049.225-.712 1.052l6.833 15.648a1.153 1.153 0 001.273.827h.936a1.112 1.112 0 001.236-.827l6.871-15.685c.34-.827.115-1.015-.708-1.015z" class="prefix__cls-1" data-name="Path 97833" transform="translate(-38.196 -14.348)"/><path id="prefix__Path_97834" d="M227.316 64.217h-1.2a20.519 20.519 0 00-6.853 1.158 1.844 1.844 0 00-1.423 2.091V81.29c0 .672.225.9.9.9h1.573c.637 0 .861-.224.861-.9V68.661a.691.691 0 01.524-.747 14.453 14.453 0 014.343-.635h1.273c.674 0 .9-.224.9-.9v-1.27c0-.668-.224-.892-.898-.892z" class="prefix__cls-1" data-name="Path 97834" transform="translate(-108.284 -13.55)"/><path id="prefix__Path_97835" d="M92.565 65.42h-1.573c-.637 0-.861.216-.861.864l.017 15.81c0 .649.224.866.9.866h1.573c.637 0 .861-.217.861-.866l-.017-15.81c-.002-.648-.226-.864-.9-.864z" class="prefix__cls-1" data-name="Path 97835" transform="translate(-26.074 -14.325)"/><path id="prefix__Path_97836" d="M264.406 50.743a14.6 14.6 0 00-4.923.933v-5.054a2.254 2.254 0 00-.575-1.386l-1.781-1.776-.023-.023a.559.559 0 00-.939.412.574.574 0 00.007.086c0 1.369-.008 6.171-.017 22.129 0 1.195.225 1.494 1.423 2.054a15.258 15.258 0 006.159 1.158c5.579 0 7.882-1.943 7.882-6.946v-5.01c-.005-4.635-1.97-6.577-7.213-6.577zm3.837 11.471c0 3.211-1.254 4-4.774 4a9.468 9.468 0 01-3.463-.6c-.487-.187-.524-.336-.524-.709v-10.13a11.5 11.5 0 014.436-.97c3.146 0 4.325.785 4.325 3.623z" class="prefix__cls-1" data-name="Path 97836" transform="translate(-132.944 -.076)"/><path id="prefix__Path_97837" d="M378.448 46.451a2.254 2.254 0 00-.576-1.385l-1.748-1.743v.008a.556.556 0 00-.395-.164.589.589 0 00-.593.56l-.007 7.7h-.011v.056a16.7 16.7 0 00-4.886-.822c-5.092 0-7.245 1.943-7.245 6.8v5.047c0 4.779 2.153 6.685 7.62 6.685a15.8 15.8 0 006.383-1.158c1.2-.485 1.461-.821 1.461-2.054v-14.06zm-3.333 18.376c0 .41-.037.523-.487.709a10.676 10.676 0 01-3.688.6c-3.258 0-4.587-.748-4.587-3.735v-4.825c0-3.062 1.141-3.847 4.512-3.847a12.293 12.293 0 014.249.822z" class="prefix__cls-1" data-name="Path 97837" transform="translate(-201.715)"/><path id="prefix__Path_97838" d="M59.1 64.217h-1.2a20.519 20.519 0 00-6.853 1.158 1.844 1.844 0 00-1.423 2.091V81.29c0 .672.225.9.9.9H52.1c.637 0 .861-.224.861-.9V68.661a.691.691 0 01.524-.747 14.453 14.453 0 014.343-.635H59.1c.674 0 .9-.224.9-.9v-1.27c0-.668-.226-.892-.9-.892z" class="prefix__cls-1" data-name="Path 97838" transform="translate(0 -13.55)"/><path id="prefix__Path_97839" d="M91.93 49.535h-.2c-1.211 0-1.572.327-1.572 1.539v.226c0 1.211.393 1.539 1.572 1.539h.2c1.211 0 1.572-.361 1.572-1.539v-.229c-.002-1.209-.361-1.536-1.572-1.536z" data-name="Path 97839" transform="translate(-26.094 -4.099)" fill="#ff6b00"/></g></svg>